<?xml version="1.0" encoding="UTF-8"?>
<svg id="Layer_1" xmlns="http://www.w3.org/2000/svg" version="1.1" viewBox="0 0 725 500">
  <!-- Generator: Adobe Illustrator 29.4.0, SVG Export Plug-In . SVG Version: 2.1.0 Build 152)  -->
  <defs>
    <style>
      .st0 {
        fill: #fff;
      }
    </style>
  </defs>
  <path class="st0" d="M473.94,326.7L326.43,70.34l105.97-60.87,183.43,317.23h-141.89"/>
  <path class="st0" d="M81.04,290.79l105.97-61.28,56.07,97.2H101.6l-20.56-35.92"/>
  <path class="st0" d="M289.01,490.25h30.16v-122.01h-30.16v122.01Z"/>
  <path class="st0" d="M666.97,493.13c-33.72,0-54.01-17.41-55.11-41.95h31.81c0,7.68,4.8,18.92,25.36,19.33,13.71,0,20.15-8.09,20.15-14.12-.82-9.6-12.89-10.42-25.77-12.48-12.89-2.06-23.85-4.39-31.81-8.5-10.14-5.21-17-16.45-17-29.34,0-21.8,18.92-39.07,50.45-39.07s49.9,16.04,51.96,39.89h-30.71c-.27-6.44-1.51-16.59-19.6-16.59-12.2,0-20.29,2.47-20.98,10.97,0,12.48,25.36,11.65,45.1,16.86,18.92,4.8,30.98,16.59,30.98,33.04,0,30.3-24.54,41.95-54.84,41.95"/>
  <path class="st0" d="M205.24,181.94l105.97-61.14,118.86,205.91h-110.91v30.16h-30.16v-30.3l-83.76-144.63"/>
  <path class="st0" d="M207.99,493.13c-35.1,0-63.61-28.65-63.61-63.34s28.52-62.79,63.61-62.79c13.3,0,25.36,3.56,35.92,10.83v-51.14h30.16v163.55h-30.16v-8.09c-10.56,6.85-22.62,10.97-35.92,10.97h0ZM173.3,429.8c0,18.92,16.18,34.68,35.51,34.68s35.1-15.77,35.1-34.68-16.18-35.1-35.1-35.1-35.51,16.18-35.51,35.1"/>
  <path class="st0" d="M430.9,326.7h29.75v163.55h-29.75v-8.09c-10.14,6.85-22.62,10.97-36.33,10.97-34.68,0-63.2-28.65-63.2-63.34s28.51-62.79,63.2-62.79c13.71,0,25.77,3.56,36.33,10.83v-51.14h0ZM360.71,429.8c0,18.92,16.18,34.68,34.68,34.68s35.51-15.77,35.51-34.68-16.18-35.1-35.51-35.1-34.68,16.18-34.68,35.1"/>
  <path class="st0" d="M533.99,493.13c-34.55,0-63.2-28.65-63.2-63.34s28.65-62.79,63.2-62.79c13.3,0,25.77,3.56,35.92,10.83v-9.73h30.16v122.15h-30.16v-8.09c-10.14,6.85-22.21,10.97-35.92,10.97h0ZM500.13,429.8c0,18.92,16.18,34.68,35.1,34.68s34.68-15.77,34.68-34.68-15.77-35.1-34.68-35.1-35.1,16.18-35.1,35.1"/>
  <path class="st0" d="M33.47,429.8c0,18.92,16.18,34.68,35.1,34.68s35.51-15.77,35.51-34.68-16.18-35.1-35.51-35.1-35.1,16.18-35.1,35.1ZM67.74,493.13c-34.68,0-63.34-28.65-63.34-63.34s28.65-62.79,63.34-62.79c13.3,0,25.77,3.56,36.33,10.83v-9.73h29.75v122.15h-29.75v-8.09c-10.14,6.85-22.62,10.97-36.33,10.97"/>
</svg>