<?xml version="1.0" encoding="utf-8"?>
<!-- Generator: Adobe Illustrator 29.4.0, SVG Export Plug-In . SVG Version: 9.03 Build 0)  -->
<svg version="1.0"
	 id="svg2" xmlns:rdf="http://www.w3.org/1999/02/22-rdf-syntax-ns#" xmlns:dc="http://purl.org/dc/elements/1.1/" xmlns:sodipodi="http://sodipodi.sourceforge.net/DTD/sodipodi-0.dtd" xmlns:inkscape="http://www.inkscape.org/namespaces/inkscape" xmlns:svg="http://www.w3.org/2000/svg" xmlns:cc="http://creativecommons.org/ns#"
	 xmlns="http://www.w3.org/2000/svg" xmlns:xlink="http://www.w3.org/1999/xlink" x="0px" y="0px" viewBox="0 0 221 125"
	 style="enable-background:new 0 0 221 125;" xml:space="preserve">
<style type="text/css">
	.st0{fill:#FFFFFF;}
</style>
<sodipodi:namedview  bordercolor="#666666" borderopacity="1" gridtolerance="10" guidetolerance="10" id="namedview12" inkscape:current-layer="layer1" inkscape:cx="99.636236" inkscape:cy="62.5" inkscape:pageopacity="0" inkscape:pageshadow="2" inkscape:window-height="709" inkscape:window-maximized="1" inkscape:window-width="1366" inkscape:window-x="-8" inkscape:window-y="-8" inkscape:zoom="1.6108597" objecttolerance="10" pagecolor="#ffffff" showgrid="false">
	</sodipodi:namedview>
<g id="layer1" transform="translate(-124.24576,-766.40339)" inkscape:groupmode="layer" inkscape:label="Layer 1">
	<g id="g2411" transform="matrix(7.3665737,0,0,7.3665737,-791.0189,-5675.1775)">
		<g id="g146919" transform="matrix(1.0330919,0,0,-1.0330919,140.58752,879.41646)">
			<path id="path146921" class="st0" d="M0,0c0,0-1.15-4.31-1.24-4.77L-2.5,0h-2.37v-6.62h1.55v4.87l1.36-4.87h1.43
				c0,0,1.32,4.71,1.35,4.86v-4.86h1.56V0H0z"/>
		</g>
		<g id="g146923" transform="matrix(1.0330919,0,0,-1.0330919,133.08346,883.64366)">
			<path id="path146925" class="st0" d="M0,0c0-0.2,0-0.39-0.09-0.58c-0.17-0.39-0.73-0.76-1.53-0.76c-0.63,0-1.06,0.26-1.06,0.77
				c0,0.69,0.65,0.84,1.21,0.91C-0.76,0.43,0,0.46,0,0.46V0z M1.57-1.47v3.45c0,0.7-0.01,1.31-0.78,1.78
				C0.21,4.1-0.55,4.18-1.18,4.18c-0.42,0-1.97,0-2.6-1.13c-0.2-0.37-0.23-0.64-0.26-0.95v0l1.61,0c0,0.14,0.02,0.29,0.16,0.46
				c0.16,0.21,0.51,0.42,1.16,0.42c1.29,0,1.1-1.29,1.1-1.29S-0.66,1.67-2.03,1.5c-0.63-0.08-1.63-0.32-2.1-1.26
				c-0.13-0.26-0.21-0.56-0.21-0.88c0-1.12,0.89-2.03,2.37-2.03c0.9,0,1.6,0.38,1.93,0.66c0-0.09,0.03-0.35,0.04-0.51h1.6
				C1.57-1.47,1.57-1.96,1.57-1.47"/>
		</g>
		<g id="g146927" transform="matrix(1.0330919,0,0,-1.0330919,150.16574,883.59784)">
			<path id="path146929" class="st0" d="M0,0l-1.52,0c-0.05-0.18-0.36-1.38-1.55-1.38c-0.02,0-0.21,0-0.23,0
				C-4.17-1.35-4.88-0.63-4.88,0.8c0,1.09,0.55,2.07,1.6,2.1h0.21c1.08,0,1.46-1.13,1.49-1.2l1.52,0c-0.29,1.41-1.4,2.56-3.08,2.56
				c-1.88,0-3.22-1.55-3.22-3.51c0-2.24,1.42-3.51,3.18-3.51C-1.22-2.77-0.21-1.27,0,0"/>
		</g>
		<path id="path146931" class="st0" d="M152.75,889.94h-26.99v-14.05h26.99V889.94z M124.25,891.4h30v-16.97h-30V891.4z"/>
	</g>
</g>
</svg>
