<?xml version="1.0" encoding="UTF-8"?>
<svg id="Layer_1" xmlns="http://www.w3.org/2000/svg" version="1.1" viewBox="0 0 554 137">
  <!-- Generator: Adobe Illustrator 29.4.0, SVG Export Plug-In . SVG Version: 2.1.0 Build 152)  -->
  <defs>
    <style>
      .st0 {
        fill: #fff;
      }
    </style>
  </defs>
  <path class="st0" d="M181.06.35c-20.61-.03-34.26,10.84-36.18,27.08-.45,3.75-.91,7.51-1.38,11.26h268.14s.5-3.96.9-7.13c2.02-16.36-4.94-31.2-30.22-31.2h0s-190.38.01-201.25,0ZM17.42.35l-4.71,38.33h121.6L139.01.35H17.42h0,0ZM425.61.35l-4.7,38.33h131.82s.16-1.39.74-5.9c3.21-25.16-13.02-32.43-28.7-32.43h-99.18ZM419.1,53.28l-10.27,83.66,45.48-.02,10.28-83.62-45.49-.02h0ZM505.5,53.28l-10.29,83.66,45.48-.02,10.28-83.62-45.47-.02h0s0,0,0,0ZM10.94,53.29L.65,136.94h121.59l4.48-36.29H50.59s1.93-15.66,1.93-15.66h76.11l3.9-31.7H10.95s0,0,0,0ZM141.72,53.29c-3.34,21.83,7.59,31.7,23.08,31.7,8.42,0,61.52-.02,61.52-.02l-1.92,15.67h-88.49s-4.46,36.3-4.46,36.3c0,0,96.34.03,100.24,0,3.22-.23,25.76-.85,33.43-19.28,2.49-5.98,4.69-27.44,5.3-31.94,3.54-26.16-14.57-32.4-28.83-32.4-7.86,0-84.35-.02-99.88-.02ZM283.27,53.29l-10.27,83.65h45.46l6.4-51.94h57.1c16.19,0,24.9-8.71,26.51-20.4.52-3.76.98-7.53,1.4-11.31h-126.59s0,0,0,0Z"/>
</svg>