<?xml version="1.0" encoding="UTF-8"?>
<svg id="svg27" xmlns="http://www.w3.org/2000/svg" xmlns:svg="http://www.w3.org/2000/svg" xmlns:sodipodi="http://sodipodi.sourceforge.net/DTD/sodipodi-0.dtd" xmlns:inkscape="http://www.inkscape.org/namespaces/inkscape" version="1.1" viewBox="0 0 260 260">
  <!-- Generator: Adobe Illustrator 29.4.0, SVG Export Plug-In . SVG Version: 2.1.0 Build 152)  -->
  <defs>
    <style>
      .st0 {
        fill: #fff;
      }
    </style>
  </defs>
  <g id="g25">
    <path id="path5" class="st0" d="M157.39,111.11c-.35-.49-.74-.9-1.19-1.27-.44-.36-.94-.67-1.49-.91-.54-.26-1.15-.44-1.79-.56-.65-.13-1.35-.18-2.1-.18s-1.46.06-2.15.18c-.67.12-1.32.31-1.93.55-.61.25-1.19.56-1.76.93-.56.37-1.1.8-1.64,1.28-.97.88-1.8,1.9-2.51,3.05-.71,1.16-1.31,2.43-1.82,3.83-.51,1.38-.95,2.9-1.35,4.49-.38,1.6-.73,3.29-1.07,5.08-.35,1.75-.66,3.46-.9,5.08-.23,1.6-.38,3.14-.42,4.57s.05,2.72.28,3.9c.24,1.16.64,2.2,1.23,3.1.37.48.75.92,1.2,1.28.44.38.94.69,1.47.94.55.24,1.16.42,1.8.54.65.13,1.37.18,2.13.17.76-.02,1.49-.09,2.17-.23.7-.13,1.36-.35,1.99-.6.63-.27,1.24-.59,1.82-.98.58-.38,1.14-.83,1.67-1.33.97-.9,1.79-1.95,2.48-3.13.71-1.18,1.28-2.48,1.8-3.91.28-.76.52-1.56.76-2.38.2-.7.38-1.41.56-2.15.39-1.6.73-3.28,1.07-5.04.16-.82.3-1.62.43-2.41.17-.9.3-1.77.42-2.62.22-1.59.36-3.07.38-4.46.04-1.38-.06-2.66-.3-3.79-.25-1.15-.64-2.16-1.25-3.04"/>
    <path id="path7" class="st0" d="M101.52,111.11c-.35-.49-.74-.9-1.18-1.27-.44-.36-.95-.67-1.49-.91-.55-.25-1.15-.44-1.8-.57-.64-.12-1.34-.17-2.09-.17s-1.47.06-2.15.18c-.66.12-1.31.3-1.92.55-.61.26-1.19.56-1.75.93-.57.37-1.11.8-1.65,1.28-.97.88-1.81,1.9-2.52,3.05-.71,1.16-1.31,2.43-1.82,3.83-.51,1.38-.95,2.9-1.35,4.5-.38,1.6-.73,3.28-1.07,5.07-.35,1.75-.66,3.46-.9,5.07-.23,1.62-.38,3.15-.42,4.57-.05,1.42.04,2.72.28,3.89.25,1.17.64,2.22,1.25,3.11.35.48.74.92,1.19,1.28.43.38.94.69,1.48.94.54.24,1.15.42,1.79.55.65.13,1.37.17,2.13.17.75-.02,1.49-.1,2.18-.23.68-.14,1.35-.35,1.98-.61.63-.27,1.24-.59,1.82-.98.58-.38,1.14-.83,1.66-1.33.97-.89,1.79-1.94,2.49-3.13.7-1.18,1.28-2.48,1.8-3.9.28-.78.53-1.59.77-2.43.19-.68.38-1.38.55-2.11.38-1.6.73-3.28,1.07-5.03.16-.83.3-1.62.43-2.4.16-.9.3-1.78.41-2.64.23-1.59.37-3.08.39-4.46.04-1.38-.06-2.66-.31-3.79-.23-1.15-.64-2.16-1.24-3.04"/>
    <path id="path9" class="st0" d="M212.81,110.99c-.35-.49-.75-.92-1.2-1.29-.45-.37-.95-.68-1.5-.93s-1.16-.43-1.81-.56c-.66-.13-1.36-.18-2.12-.19-.76,0-1.49.06-2.17.19-.68.13-1.33.31-1.94.56-.61.26-1.2.56-1.78.94-.56.37-1.11.81-1.65,1.29-.99.89-1.82,1.93-2.54,3.09-.72,1.16-1.32,2.46-1.84,3.87-.52,1.39-.96,2.92-1.36,4.54s-.75,3.32-1.09,5.12c-.35,1.77-.67,3.49-.9,5.13-.24,1.62-.39,3.17-.43,4.61-.05,1.43.05,2.74.28,3.93.25,1.17.65,2.23,1.25,3.13.36.49.76.93,1.21,1.29.44.39.94.71,1.49.95.55.26,1.16.44,1.81.57.66.12,1.38.17,2.15.17.76-.02,1.49-.09,2.19-.24.7-.13,1.37-.34,2.01-.6.63-.27,1.26-.6,1.83-.99.59-.39,1.15-.83,1.68-1.35.98-.91,1.82-1.96,2.52-3.14.71-1.2,1.29-2.52,1.82-3.95.28-.77.53-1.58.76-2.41.3-.94.57-1.89.8-2.91.34-1.42.63-2.92.91-4.47.14-.8.28-1.56.38-2.32.17-.9.3-1.79.42-2.64.22-1.6.37-3.11.38-4.5.04-1.39-.06-2.69-.3-3.83-.25-1.16-.65-2.18-1.26-3.06"/>
    <path id="path11" class="st0" d="M156.63,132.47c-.17.73-.37,1.45-.56,2.15.29-.92.56-1.87.79-2.88.33-1.4.62-2.88.9-4.43.14-.78.27-1.55.38-2.29-.14.79-.28,1.6-.44,2.41-.33,1.76-.68,3.45-1.06,5.04"/>
    <path id="path13" class="st0" d="M100.76,132.47c-.17.72-.36,1.43-.56,2.11.29-.91.56-1.84.79-2.84.33-1.39.61-2.88.89-4.43.14-.78.27-1.54.38-2.27-.14.78-.28,1.58-.43,2.4-.34,1.75-.69,3.44-1.07,5.03"/>
    <g id="g23">
      <path id="path15" class="st0" d="M101.25,178.03c-1.26,0-2.08.65-2.48,1.53-.23.55-.31.95-.34,1.6h5.64c-.04-.65-.12-1.05-.35-1.6-.39-.88-1.22-1.53-2.48-1.53"/>
      <path id="path17" class="st0" d="M159.92,178.29c-.74,0-1.28.23-1.71.65-.77.78-.85,2.05-.85,3.59s.08,2.84.85,3.62c.42.42.96.65,1.71.65s1.31-.23,1.74-.65c.76-.78.85-2.09.85-3.62s-.09-2.81-.85-3.59c-.43-.42-1-.65-1.74-.65"/>
      <path id="path19" class="st0" d="M198.02,189.97l-3.65-6.18-1.56,1.76v4.42h-3.7v-20.28h3.7v11.52l4.92-6.07h4.47l-5.31,5.98,5.7,8.86h-4.58ZM180.58,179.18c-.58-.57-1.05-.89-1.97-.89-1.14,0-2.38.86-2.38,2.74v8.94h-3.7v-14.83h3.61v1.42c.72-.85,2.14-1.6,3.73-1.6,1.46,0,2.48.37,3.5,1.39l-2.79,2.82ZM170.92,134.65c-.6,2.25-1.28,4.29-2.11,6.18-.83,1.88-1.8,3.6-2.95,5.21-1.16,1.61-2.5,3.13-4.09,4.56-1.09.99-2.33,1.95-3.71,2.85-1.37.89-2.89,1.72-4.56,2.42-1.67.71-3.47,1.28-5.42,1.71-1.95.41-4.04.67-6.27.69-2.24.04-4.25-.16-6.07-.52-1.82-.37-3.44-.91-4.86-1.59-1.42-.66-2.68-1.45-3.74-2.33-1.07-.88-1.98-1.84-2.73-2.81-1.11-1.43-1.93-2.92-2.54-4.55-.6-1.62-.95-3.36-1.12-5.27-.17-1.91-.13-3.98.08-6.25.2-2.29.58-4.77,1.07-7.52.5-2.72,1.06-5.19,1.71-7.44.63-2.26,1.37-4.29,2.24-6.17.87-1.87,1.87-3.58,3.07-5.17,1.2-1.58,2.57-3.05,4.18-4.45,1.1-.95,2.34-1.89,3.71-2.74,1.38-.86,2.89-1.62,4.53-2.28,1.64-.65,3.43-1.18,5.35-1.55s3.97-.57,6.15-.54c2.16,0,4.13.24,5.9.64,1.77.38,3.35.94,4.74,1.61,1.39.66,2.61,1.46,3.66,2.32,1.05.86,1.93,1.78,2.64,2.74,1.08,1.38,1.91,2.84,2.49,4.41.61,1.59.97,3.25,1.15,5.11.18,1.83.17,3.84,0,6.05-.17,2.22-.51,4.63-.97,7.31-.45,2.7-.94,5.13-1.53,7.37M164.54,188.32c-.92.96-2.43,1.82-4.61,1.82s-3.68-.86-4.58-1.82c-1.34-1.39-1.69-3.08-1.69-5.79s.35-4.36,1.69-5.75c.91-.97,2.38-1.82,4.58-1.82s3.69.85,4.61,1.82c1.34,1.38,1.68,3.07,1.68,5.75s-.34,4.39-1.68,5.79M143.88,189.97h-3.04l-3.11-9.31-3.1,9.31h-3.05l-4.57-14.83h3.94l2.38,9.17,3.03-9.17h2.7l3.04,9.17,2.39-9.17h3.91l-4.53,14.83ZM121.13,178.38h-2.62v7.11c0,.85.4,1.34,1.28,1.34h1.34v3.14h-2.03c-3.01,0-4.29-2.14-4.29-4.24v-7.34h-1.57v-2.82h1.57v-4.38h3.69v4.38h2.62v2.82ZM109.99,146.03c-1.16,1.61-2.5,3.14-4.09,4.56-1.1,1-2.33,1.95-3.71,2.85-1.38.89-2.9,1.72-4.56,2.42-1.67.71-3.47,1.28-5.42,1.71-1.95.4-4.05.67-6.28.7s-4.25-.17-6.06-.53c-1.82-.37-3.44-.91-4.86-1.59-1.43-.66-2.67-1.45-3.74-2.33-1.07-.87-1.98-1.83-2.73-2.81-1.1-1.42-1.93-2.92-2.54-4.55-.6-1.62-.95-3.36-1.12-5.27-.16-1.91-.13-3.98.08-6.25.21-2.29.58-4.77,1.08-7.52.5-2.72,1.06-5.19,1.71-7.44.64-2.26,1.37-4.29,2.24-6.17.87-1.87,1.88-3.58,3.07-5.17,1.19-1.59,2.57-3.05,4.17-4.45,1.1-.94,2.35-1.89,3.72-2.74,1.38-.86,2.88-1.62,4.53-2.28,1.64-.65,3.43-1.18,5.35-1.56,1.92-.36,3.96-.56,6.14-.52,2.16,0,4.13.23,5.9.63,1.78.39,3.35.94,4.75,1.61,1.39.67,2.6,1.47,3.66,2.32,1.04.86,1.92,1.78,2.64,2.74,1.07,1.38,1.9,2.84,2.49,4.41.6,1.59.97,3.26,1.15,5.11.18,1.83.17,3.84,0,6.05-.17,2.22-.5,4.63-.97,7.31-.44,2.7-.94,5.14-1.53,7.37-.59,2.25-1.27,4.29-2.11,6.18-.82,1.88-1.79,3.6-2.94,5.21M107.71,183.7h-9.28c0,1.92,1.16,3.31,3.25,3.31,1.62,0,2.42-.46,3.36-1.39l2.26,2.19c-1.51,1.5-2.96,2.34-5.64,2.34-3.5,0-6.87-1.6-6.87-7.61,0-4.84,2.62-7.57,6.46-7.57,4.13,0,6.46,3.02,6.46,7.09v1.65ZM88.19,189.97h-3.69v-8.98c0-2.02-1.28-2.7-2.45-2.7s-2.48.69-2.48,2.7v8.98h-3.7v-14.83h3.62v1.37c.97-1.03,2.34-1.54,3.7-1.54,1.48,0,2.68.49,3.5,1.31,1.19,1.19,1.5,2.59,1.5,4.21v9.49ZM245.8,80.19c-.71.13-1.38.33-2.02.59-.64.27-1.26.59-1.85.97-.59.39-1.16.84-1.71,1.36-1.04.92-1.9,2-2.65,3.21-.74,1.21-1.37,2.56-1.91,4.03-.54,1.46-.99,3.04-1.41,4.73-.39,1.68-.76,3.46-1.12,5.33-.22,1.12-2.04,11.81-3.49,20.48l-1.98,11.26s-.05.28-.11.71c-.04.2-.08.42-.12.62-.16.91-.26,1.77-.34,2.61-.05.38-.08.72-.09.95-.02.34-.06,1-.06,1,0,.05.03.09.03.15,0,.88.03,1.71.17,2.48.18.99.5,1.89.99,2.66.29.42.61.79.99,1.12.36.33.78.6,1.23.83.46.23.96.39,1.51.5.08.02.18.02.28.05l-3.98,12.76c-.41,0-.83.03-1.25.02-1.49-.06-2.88-.23-4.14-.54-1.25-.29-2.4-.71-3.46-1.25-.19-.11-.38-.23-.56-.35-.74-.38-1.45-.78-2.09-1.25-.97-.71-1.82-1.51-2.52-2.38-1.13-1.43-1.92-3.1-2.43-4.9-.64,1.13-1.42,2.25-2.36,3.33-.41.47-.83.9-1.27,1.31l-.05.07c-.09.07-.17.15-.26.22-.22.2-.43.39-.65.58,0,0,0,0-.02.02-.23.19-.46.38-.69.56-.69.54-1.36,1.04-2.04,1.47-1.21.78-2.44,1.39-3.71,1.87-1.27.46-2.59.79-3.96.97-1.39.19-2.84.26-4.41.2-1.44-.06-2.82-.23-4.14-.52-1.31-.31-2.57-.72-3.7-1.25-1.16-.52-2.2-1.16-3.13-1.87-.92-.71-1.72-1.51-2.37-2.39-1.18-1.59-1.94-3.45-2.38-5.48-.45-2.02-.58-4.22-.51-6.5.08-2.28.37-4.64.74-7,.39-2.36.86-4.7,1.34-6.98.47-2.25.96-4.6,1.55-6.92.59-2.32,1.27-4.61,2.11-6.81s1.84-4.29,3.08-6.17c1.23-1.89,2.7-3.58,4.47-4.98.97-.79,2.06-1.48,3.22-2.09,1.17-.6,2.41-1.1,3.7-1.49,1.29-.4,2.65-.69,4.02-.86,1.38-.17,2.78-.21,4.19-.13,1.46.08,2.82.26,4.08.55,1.26.28,2.41.7,3.48,1.23,1.05.52,2.03,1.2,2.91,2.01.79.73,1.49,1.6,2.15,2.57.12-.84.24-1.69.39-2.57.4-2.19.91-4.5,1.47-6.89.55-2.41,1.12-4.7,1.71-6.86.62-2.15,1.29-4.21,2.06-6.07.27-.64.55-1.26.83-1.87.08-.17.2-.42.38-.76.03-.05.06-.11.08-.16.11-.21.24-.44.39-.7.32-.57.65-1.12,1-1.65.64-.97,1.36-1.85,2.14-2.67,2.5-2.76,6.23-5.6,11.42-6.54C217.15,29.43,176.7,4.37,130.38,4.33,60.83,4.26,4.4,60.57,4.33,130.12c-.02,20.23,4.73,39.32,13.18,56.27,2.51-1.14,4.66-3.02,6.17-5.47l.08-.12c.04-.06.08-.12.12-.18.73-1.15,1.34-2.4,1.84-3.8.48-1.3.9-2.77,1.29-4.5.06-.29,9.61-52.28,10.19-55.39h-8.34s4.1-13.84,4.1-13.84l6.54-.03.69-3.6c.08-.5.16-.98.25-1.49l.2-1.16c.39-2.21.83-4.74,1.27-6.51.35-1.49.7-2.7,1.08-3.83.54-1.7,1.11-3.2,1.72-4.57.98-2.16,2.09-4.06,3.36-5.79,1.36-1.84,2.86-3.48,4.61-5.03,1.27-1.11,2.65-2.15,4.12-3.09,1.56-1.01,3.25-1.88,5.03-2.62,1.93-.78,3.94-1.38,5.95-1.79,2.21-.45,4.49-.68,6.78-.68h.28c2.27,0,4.42.22,6.38.64.78.16,1.5.38,2.2.6l.12.03-4.57,14.65-.19-.11c-.09-.06-.18-.1-.28-.15-.69-.33-1.46-.59-2.26-.75-.85-.17-1.77-.28-2.73-.28h-.09c-1.01,0-2,.1-2.94.29-.84.17-1.66.41-2.51.75l-.11.04s-.09.03-.14.05c-.63.24-1.24.54-1.86.91-.6.38-1.17.8-1.71,1.27-.99.83-1.83,1.82-2.59,2.99-.72,1.13-1.3,2.35-1.81,3.73-.46,1.27-.87,2.7-1.27,4.41-.05.2-.27,1.47-.47,2.59-.16.92-.3,1.76-.34,1.93l-.94,6.61,9.98-.03-4.12,13.92-8.16-.05-7.54,41.9-1.95,10.18c-.46,2.41-.85,4.43-1.42,6.53-.73,2.66-1.54,4.96-2.48,7.06-.99,2.18-2.12,4.12-3.44,5.91-1.37,1.86-2.91,3.54-4.69,5.13-1.32,1.16-2.73,2.21-4.21,3.15-1.27.82-2.61,1.54-4.02,2.17,22.45,34.42,61.26,57.17,105.43,57.23,69.53.06,125.96-56.24,126.04-125.79,0-17.84-3.69-34.81-10.36-50.19"/>
    </g>
  </g>
</svg>