<?xml version="1.0" encoding="UTF-8"?>
<svg id="Layer_1" xmlns="http://www.w3.org/2000/svg" version="1.1" viewBox="0 0 2426.48 338.51">
  <!-- Generator: Adobe Illustrator 29.4.0, SVG Export Plug-In . SVG Version: 2.1.0 Build 152)  -->
  <defs>
    <style>
      .st0 {
        fill: #fff;
        fill-rule: evenodd;
      }
    </style>
  </defs>
  <path class="st0" d="M613.15,253.19c-10.38,15.72-16.39,25.42-25.76,38.13-11.7,15.04-25.42,29.09-40.14,29.77-12.04.67-22.07,0-33.45-7.69,8.13-6.93,52.85-68.25,77.94-103.71l-14.72-30.44c-26.1,41.81-72.15,112.29-78.27,119.75-3.35-4.02-20-26.67-26.08-39.8,36.12-49.17,76.94-108.38,84.95-120.42l-17.39-35.78c-5.68,10.7-45.16,74.59-79.62,128.44-8.69-21.4-16.06-44.49-24.41-69.91-19.73-60.21-46.9-123.15-86.64-149.53-21.48-14.25-54.62-18.3-81.05,1.76-23.57-16.54-56.29-19.97-82.94.01-23.49-17.28-60.8-20.51-88.23,3.58C56.54,52.81,28.11,129.07,0,206.35h38.47c20.4-67.24,43.81-140.49,70.24-171.93,20.06-23.76,50.84-21.41,65.56-11.37-37.47,37.47-64.23,110.05-90.98,183.3h38.46c19.74-65.56,42.83-136.81,68.25-169.59,11.04,11.71,20.74,25.76,29.44,41.14-19.4,37.13-36.13,82.63-52.86,128.44h38.48c9.7-31.76,20.06-64.89,31.1-93.99,7.47,17.39,14.06,35.14,19.74,53.19,16.06,49.51,28.11,91.32,56.52,133.15,22.75,33.11,47.83,41.46,71.59,39.47,13.05-1,23.75-4.68,35.12-13.72,30.21,25.17,72.72,11.06,83.29,0,16.06,12.05,32.45,15.06,48.17,13.72,19.07-1.67,33.46-8.7,51.18-29.77,6.69-8.38,14.72-18.74,23.41-30.1l-12.02-25.08h0v-.02ZM226.97,63.32c-8.37-14.05-17.39-26.76-27.43-36.8,19.4-15.38,44.49-12.37,57.53-3.35-11.04,11.04-20.73,24.41-30.1,40.14h0ZM380.67,321.04c-20.4,1-35.8-2-59.21-36.46-23.75-34.8-35.78-75.28-51.84-123.11-7.69-22.75-16.39-46.48-26.43-68.23,9.7-23.07,19.74-42.81,30.12-56.2,29.77,30.44,50.18,79.95,65.9,128.45,15.72,49.49,27.77,91.32,56.54,133.13,2.67,4.34,5.68,8.37,8.69,11.7-5.37,6.04-15.41,10.39-23.76,10.71h-.01ZM416.34,299.86c-4.2-4.9-8.1-10.04-11.7-15.4-23.75-34.45-35.8-75.26-51.85-123.08-16.73-50.84-38.47-104.03-69.23-135.14,25.43-19.62,51.52-7.34,58.2-2.35,38.13,28.11,62.89,85.3,80.62,141.5,9.36,29.44,17.39,55.86,28.11,81.28-9.71,18.07-21.76,37.15-34.14,53.19h0ZM429.7,313.33c12.39-12.71,23.75-28.43,32.77-40.47,2.79,5.17,24.32,37.81,25.1,37.12-27.26,23.84-57.87,3.35-57.87,3.35h0ZM915.22,72.98v215.08h33.77V20.47h-44.82l-83.29,216.08-82.95-215.74h-45.82v267.26h33.11V73.32l81.96,214.75h25.08l82.97-215.08h-.01ZM2040.05,256.16h-151.2v-91.98h136.82v-29.78h-136.82V52.46h150.19V20.33h-185.3v267.61h186.31v-31.78h0ZM1729.54,107.63c-23.76-17.06-53.85-22.74-84.96-10.03-37.13,15.06-54.19,50.18-57.88,85.3-3.67,39.14,13.73,81.96,48.51,100.68,30.12,16.39,69.92,15.4,98.01-4.01,16.39-11.37,27.43-29.44,31.1-48.84h-31.44c-9.7,41.83-54.54,37.91-54.54,37.91-58.79-2.44-58.87-66-58.87-66h149.53c1.02-35.81-11.04-74.6-39.45-95.02h-.01ZM1620.66,177.69c3.62-62.42,55.86-61.19,55.86-61.19,56.98-.6,58.21,61.19,58.21,61.19h-114.07ZM1339.23,266.43c-8.69,1.67-16.03-1.67-16.03-8.02v-120.42c0-12.71-7.85-22.46-18.42-31.44-16.54-14.07-70.98-27.72-110.37-3.01-17.73,11.04-27.43,29.77-28.43,52.85h33.12c-.32-10.04,2.35-20.41,9.36-27.78,14.84-15.36,59.76-15.68,74.26-.66,7.02,7.35,9.7,18.73,6.03,28.43-4.03,10.36-16.42,14.05-27.11,16.72-28.78,6.69-60.88,5.34-84.96,22.75-19.07,14.05-25.08,43.49-14.38,63.21,15.72,28.78,45.15,33.79,72.59,30.1,19.38-2.67,41.14-12.04,54.51-27.42,0,14.69,12.49,26.11,23.41,29.44,8.72,2.35,19.4,1.67,26.77-2.35l-.36-22.41h.01ZM1289.48,222.68c0,31.44-44.15,49.49-72.92,44.49-14.72-2.67-24.08-11.04-26.42-22.41-2.68-14.38,5.34-30.44,23.07-37.81,14.37-6.34,50.49-10.03,66.89-16.39,4.18.22,6.36-3.01,9.38-5.02v37.15h0ZM2229.07,266.38c-8.69,1.67-16.06-1.67-16.06-8.03v-120.42c0-12.7-7.34-23.07-18.39-31.44-20.82-15.63-75.38-24.95-110.4-3.01-17.7,11.04-27.41,29.77-28.42,52.85h33.11c-.32-10.03,2.36-20.4,9.38-27.77,14.01-14.53,58.97-16.54,74.28-.67,7.02,7.35,9.7,18.73,6,28.43-4.01,10.38-16.39,14.05-27.08,16.73-28.78,6.68-60.89,5.34-84.96,22.74-19.08,14.05-25.11,43.49-14.38,63.23,16.06,28.77,45.5,33.77,72.58,30.1,19.4-2.68,41.17-12.05,54.54-27.43,0,10.83,9.25,25.14,23.41,29.44,8.69,2.35,19.4,1.67,26.74-2.35l-.35-22.4h0ZM2179.29,222.6c0,31.44-44.15,49.51-72.93,44.49-14.72-2.67-24.08-11.04-26.42-22.41-2.68-14.38,5.34-30.44,23.07-37.79,14.38-6.36,50.23-10.78,66.9-16.41,4.76-1.61,6.36-3,9.38-5.02v37.15h0ZM1482.48,219.23c-1.19,21.54-8.72,37.61-25.73,46.5-22.77,11.85-51.19,5.02-67.91-14.38-8.03-9.03-13.05-23.58-15.38-37.3-3.01-12.7-3.01-25.93-.69-39.3,2-14.05,7.37-27.76,15.41-38.12,16.72-19.74,44.78-26.38,68.22-14.38,14.03,7.17,24.16,21.66,24.77,38.47h32.1c-2-24.76-16.72-48.17-38.12-59.88-35.14-19.73-82.63-13.37-110.72,16.73-29.1,30.78-34.78,80.62-19.4,119.41,5.02,13.05,11.05,23.76,20.75,34.46,30.78,33.77,75.59,35.78,109.71,16.04,21.08-12.04,37.13-39.13,38.48-68.23h-31.49v-.02ZM2285.74,180.84l1.49-10.03c4.36-32.11,43.82-56.87,73.25-43.15v-33.12c-28.42-7.35-59.53,8.38-74.58,33.12v-31.1h-33.79v191.67h33.62l.18-107.38h-.18.01ZM1045.19,288.23h33.62v-107.36l1.84-10.04c5.36-32.11,43.49-56.86,72.93-43.15v-33.11c-28.11-7.35-58.55,8.69-74.59,33.11v-31.1h-33.79v191.65h-.01ZM2399.61,66.38c-14.83.03-26.84,12.04-26.87,26.87,0,14.79,12.09,26.86,26.87,26.86s26.87-12.07,26.87-26.86c-.04-14.83-12.05-26.84-26.87-26.87ZM2399.56,115.8c-12.39,0-22.65-10.26-22.65-22.65s10.26-22.65,22.65-22.65,22.65,10.26,22.65,22.65-10.29,22.65-22.65,22.65Z"/>
  <path class="st0" d="M2405.6,95.21c3.32-.61,5.42-4.23,5.72-7.56.3-5.14-2.41-9.66-6.94-9.66h-16v31.4h5.75v-12.07h5.72c2.41,0,4.54,1.82,5.14,5.73.3,1.5.3,3.02.3,6.34h5.72c0-4.84-.3-7.85-1.22-10.27-.86-2.4-2.37-3.31-4.18-3.9h-.01ZM2401.96,91.01h-7.83v-8.16h8.43c4.55,0,4.24,8.16-.6,8.16h0ZM1789.82,165.78v40.47h43.8v-40.47h-43.8ZM1534.48,20.51v267.61h34.46V20.51h-34.46ZM979.6,94.85v193.34h33.77V94.85h-33.77ZM1013.84,59.38V20.57h-33.79v38.81h33.79Z"/>
</svg>