<?xml version="1.0" encoding="UTF-8"?>
<svg id="Layer_1" xmlns="http://www.w3.org/2000/svg" version="1.1" viewBox="0 0 772.18 293.4">
  <!-- Generator: Adobe Illustrator 29.4.0, SVG Export Plug-In . SVG Version: 2.1.0 Build 152)  -->
  <defs>
    <style>
      .st0 {
        fill: #fff;
      }
    </style>
  </defs>
  <path class="st0" d="M322.44,24.82C382.64,6.72,445.77-.89,508.54.08c41.05.76,82.19,5.8,121.73,17.08,33.72,9.67,66.4,23.97,95,44.45,14.66,10.53,28.23,22.66,39.83,36.5-11.7-11.31-24.27-21.74-37.74-30.87-30.34-20.72-64.66-35.26-100.24-44.2-20.21-5.1-40.83-8.45-61.58-10.33-22.66-2.09-45.45-2.28-68.18-1.46-25.74.94-51.42,3.35-76.86,7.44-36.89,5.96-73.32,15.44-107.99,29.47-32.24,13.1-63.08,30.2-89.86,52.56-.7.47-1.26,1.42-2.2,1.32-13.72-.14-27.44-.24-41.17-.37,12.93-12.47,27.45-23.22,42.68-32.7,31.22-19.32,65.4-33.51,100.47-44.15Z"/>
  <path class="st0" d="M415.83,35.38c28.35-4.89,57.07-7.81,85.85-7.85,43.14-.12,86.47,4.62,128.1,16.18,17.97,5.04,35.62,11.38,52.48,19.42,15.87,7.59,31.07,16.69,44.71,27.82,12.5,10.23,23.71,22.25,31.92,36.21,8.46,14.33,13.58,30.87,13.28,47.59.21,18.55-5.88,36.74-15.2,52.64-9.2,15.65-21.49,29.31-35.1,41.24-7.65,6.67-15.72,12.88-24.15,18.54-31.24.13-62.51.03-93.76.05,14.29-8.05,27.99-17.23,40.49-27.87,12.43-10.61,23.73-22.7,32.47-36.56,10.04-15.82,16.39-34.32,16.18-53.19-.03-17.45-5.94-34.59-15.68-48.97-9.36-13.95-21.87-25.54-35.56-35.16-15.34-10.72-32.24-19.07-49.69-25.72-38.53-14.54-79.67-21.16-120.69-22.97-24.19-.94-48.48-.49-72.54,2.25-2.2.18-4.38.7-6.6.58,7.84-1.33,15.63-2.97,23.48-4.24Z"/>
  <path class="st0" d="M79.18,110.7c17.61-4.17,35.8-5.16,53.84-4.84,10.59.18,21.18.78,31.67,2.27,11.09,1.64,22.25,4.16,32.23,9.45,7.38,3.89,13.94,9.75,17.6,17.35,4.25,8.65,4.66,18.63,3.47,28.03-22.94.02-45.88,0-68.82,0,.2-3.81.32-7.84-1.41-11.35-1.37-2.84-3.98-4.87-6.82-6.1-4.31-1.86-9.04-2.48-13.69-2.84-6.88-.44-13.83-.38-20.65.69-5.9.98-11.92,2.76-16.57,6.69-3.46,2.93-5.81,7.23-6.07,11.78-.14,2.51,1.31,4.88,3.43,6.13,3.86,2.39,8.51,2.69,12.87,3.47,22.78,3.62,45.6,6.95,68.36,10.68,9.17,1.48,18.37,3.41,26.9,7.19,5.85,2.61,11.41,6.23,15.38,11.33,3.98,5.06,6.05,11.48,6.22,17.87,1.07-5.86,2.51-11.65,3.73-17.48,6.55-29.93,13.08-59.86,19.65-89.79,23.28,0,46.55.02,69.82-.01,20,36.64,39.89,73.35,59.85,110,.19.2.59.6.78.8,8.14-36.92,16.15-73.86,24.27-110.79,11.04-.02,22.07,0,33.11,0,10.92-.18,21.84-.05,32.76,0,13.48,0,26.97,0,40.45,0,8.12,24.99,16.25,49.98,24.36,74.98,19.08-24.99,38.12-50,57.21-74.98,23.44,0,46.87-.01,70.31,0-25.66,29-51.37,57.95-77.04,86.93-10.04,11.39-20.21,22.67-30.17,34.13-4.21,18.51-8.14,37.09-12.25,55.63-20.22,0-40.45,0-60.66,0,4-18.33,8.03-36.65,12.03-54.98.25-.66-.1-1.28-.35-1.87-12.89-28.58-25.63-57.22-38.55-85.78-.67,2.47-1.13,4.99-1.7,7.48-9.86,45.05-19.7,90.1-29.57,135.15-22.35,0-44.69,0-67.04,0-18.65-33.18-37.3-66.36-55.95-99.54-2.41-4.09-4.49-8.39-7.12-12.34-1.75,6.74-3.02,13.6-4.58,20.38-6.68,30.5-13.36,61-20.03,91.5-19.54,0-39.08,0-58.62,0,2.9-13.28,5.82-26.56,8.71-39.85-3.5,6.95-8.25,13.26-14.01,18.48-9.99,9.11-22.45,15.07-35.27,19.04-18.59,5.67-38.11,7.48-57.46,7.79h-12.63c-17.85-.41-35.9-1.27-53.21-5.95-8.48-2.36-16.84-5.77-23.73-11.35-5.28-4.25-9.44-9.93-11.7-16.34-3.02-8.38-2.92-17.52-1.76-26.24,23.96,0,47.92,0,71.87,0-.58,5.02.02,10.75,3.89,14.41,4.81,4.52,11.63,5.77,17.94,6.63,9.08.94,18.34,1.19,27.38-.3,6.51-1.15,13.23-3.38,17.91-8.28,2.99-3.14,4.86-7.33,5.17-11.65.22-2.52-.86-5.1-2.86-6.65-2.95-2.35-6.67-3.4-10.26-4.36-8.19-2.01-16.59-2.97-24.9-4.3-12.78-1.94-25.56-3.88-38.35-5.82-9.7-1.42-19.57-2.79-28.62-6.78-7.6-3.24-14.67-8.55-18.42-16.07-4.27-8.41-4.09-18.29-2.23-27.33,2.45-12.54,9.27-24.1,18.86-32.53,11.53-10.25,26.2-16.24,41.05-19.8Z"/>
</svg>