<?xml version="1.0" encoding="UTF-8"?>
<svg id="Layer_1" xmlns="http://www.w3.org/2000/svg" version="1.1" viewBox="0 0 658.2 146">
  <!-- Generator: Adobe Illustrator 29.4.0, SVG Export Plug-In . SVG Version: 2.1.0 Build 152)  -->
  <defs>
    <style>
      .st0 {
        fill: #fff;
      }
    </style>
  </defs>
  <polygon class="st0" points="643.7 0 607.8 76.8 594.3 47.7 579.7 47.7 601.9 95.3 613.7 95.3 658.2 0 643.7 0"/>
  <path class="st0" d="M489.7,142.6h28.9v-52.9c0-12.1,7-20.6,17.4-20.6s15.2,7,15.2,17.1v56.4h28.9v-61.9c0-21-12.6-35.8-33-35.8-13,0-22.1,5.6-28.9,15.8h-.6v-13h-28l.1,94.9h0ZM432.9,45.1c-30.2,0-50.4,21.7-50.4,50.3s20.2,50.3,50.4,50.3,50.4-21.9,50.4-50.3c.1-28.6-20.2-50.3-50.4-50.3ZM432.7,124.3c-13.7,0-21-11.5-21-28.9s7.2-28.9,21-28.9,21.3,11.3,21.3,28.9c.1,17.4-7.5,28.9-21.3,28.9ZM300.1,142.6h81.2v-22.8h-46v-.6l44-49.3v-22.3h-79.2v22.9h44.5v.6l-44.5,49.7v21.8h0ZM263,142.6h29.1V47.7h-29.1v94.9ZM195.5,142.6h29v-43.6c0-19.8,11.9-28.6,30-26.1h.6v-25c-1.5-.6-3.2-.7-5.9-.7-11.3,0-18.9,5.2-25.4,16.3h-.6v-15.8h-27.7v94.9h0ZM142.3,124.4c-12.8,0-20.6-8.3-22.1-21.1h68.4c.2-20.4-5.2-36.7-16.5-46.9-8-7.4-18.5-11.5-31.9-11.5-28.6,0-48.4,21.7-48.4,50.1s18.9,50.4,50.3,50.4c11.9,0,21.3-3.2,29.1-8.5,8.3-5.7,14.3-14.1,15.9-22.4h-27.8c-2.7,6.2-8.5,9.9-17,9.9ZM140.8,65.6c10.2,0,17.2,7.6,18.4,18.7h-38.8c2.3-11.2,8.4-18.7,20.4-18.7ZM34,142.6h30.4l33-94.9h-29.1l-18.5,61h-.4l-18.5-61H1l33,94.9ZM263,13.9h29.1v25.8h-29.1V13.9Z"/>
</svg>